<?xml version="1.0" encoding="UTF-8"?>
<!DOCTYPE svg PUBLIC "-//W3C//DTD SVG 1.1//EN" "http://www.w3.org/Graphics/SVG/1.1/DTD/svg11.dtd">
<!-- Creator: CorelDRAW -->
<svg xmlns="http://www.w3.org/2000/svg" xml:space="preserve" width="7.7929in" height="1.60248in" version="1.1" style="shape-rendering:geometricPrecision; text-rendering:geometricPrecision; image-rendering:optimizeQuality; fill-rule:evenodd; clip-rule:evenodd"
viewBox="0 0 7727.51 1589.04"
 xmlns:xlink="http://www.w3.org/1999/xlink"
 xmlns:xodm="http://www.corel.com/coreldraw/odm/2003">
 <defs>
  <style type="text/css">
   <![CDATA[
    .fil2 {fill:none}
    .fil1 {fill:#F58634}
    .fil0 {fill:#2A6BC7}
   ]]>
  </style>
 </defs>
 <g id="Layer_x0020_1">
  <metadata id="CorelCorpID_0Corel-Layer"/>
  <path class="fil0" d="M4199.44 764.59c0,573.87 564.85,641.76 796,424.15 54.7,-51.49 132.73,-165.33 140.52,-258.88l-137.72 0c-61.95,117.08 -146.21,234.13 -302.99,234.13 -340.21,0 -460.4,-429.88 -253.41,-652.8l20.28 -21.04c176.28,-168.91 476.48,-60.14 522.35,136.72l151.5 0c-14.67,-176.24 -240.72,-398.36 -524.01,-359.68 -239.22,32.66 -412.51,230.55 -412.51,497.41z"/>
  <path class="fil0" d="M6375.47 1163.98c-252.22,0 -295.35,-523.35 41.32,-523.35 300.64,0 278.67,523.35 27.55,523.35l-68.86 0zm68.86 137.72c189.85,0 330.53,-192.13 330.53,-385.63l0 -716.16 -137.72 0 0 440.72c-59.76,-68.75 -119.66,-137.72 -247.9,-137.72 -438.48,0 -507.4,798.8 55.09,798.8z"/>
  <path class="fil0" d="M6885.04 860.99l0 96.41c0,166.4 178.34,344.31 344.31,344.31 120.8,0 212.64,-5.54 313.72,-99.45 47.31,-43.96 113.22,-133.61 113.22,-217.31 0,-39.51 -82.52,-27.54 -123.95,-27.54 -27.73,333.22 -523.35,295.87 -523.35,-13.77 0,-113.62 15.98,-249.59 173.7,-294.92 112.61,-32.37 226.98,-5.78 280.79,74.56 -64.16,33.95 -119.5,65.37 -184.85,104.37 -37.61,22.45 -168.27,94.64 -200.78,102.21 17.27,32.63 31.94,56.16 41.32,96.41 56.14,-13.08 80.28,-38.49 128.53,-64.28l381.04 -211.17c-233.27,-440.86 -743.71,-177.54 -743.71,110.18z"/>
  <path class="fil0" d="M5356.32 888.54c0,-50.54 43.86,-144.62 72.17,-175.74 34.92,-38.38 106.29,-72.16 175.73,-72.16 298.7,0 280.2,523.35 27.55,523.35l-68.86 0c-131.06,0 -206.59,-149.21 -206.59,-275.44zm247.9 413.17c457.74,0 494.47,-754.7 10.42,-795.66 -474.42,-40.14 -546.41,795.66 -10.42,795.66z"/>
  <g id="_2833506814176">
   <path class="fil1" d="M315.64 681.95c0,-155.71 78.92,-275.44 234.13,-275.44 280.94,0 275.45,194.57 275.45,413.17l-509.58 0 0 -137.72zm0 275.45l509.58 0 0 316.76 137.72 0 0 -592.21c0,-228.33 -133.43,-413.17 -358.08,-413.17 -208.02,0 -362.39,62.55 -407.49,294.9 -33.9,174.68 -19.45,516.08 -19.45,710.48l137.72 0 0 -316.76z"/>
   <path class="fil1" d="M1238.39 847.22c0,-84.06 87.55,-206.58 220.36,-206.58 270.56,0 298.39,326.65 181.64,457.08 -13.17,14.71 -55.99,45.44 -71.59,52.55 -29.02,13.22 -43.74,16.31 -88.05,18.66 -224.61,11.91 -242.36,-178.36 -242.36,-321.71zm-137.72 -68.86c0,134.41 17.71,287.51 70.86,369.85 158.34,245.28 659.07,228.97 659.07,-273.44 0,-183.05 -149.07,-358.08 -289.22,-358.08 -158.2,0 -182.23,-3.82 -284.2,115.2l-18.79 -431.96 -137.72 0 0 578.44z"/>
   <path class="fil1" d="M2050.96 847.22c0,-84.06 87.55,-206.58 220.36,-206.58 277.29,0 301.29,340.79 176.53,465.74 -39.93,40 -101.22,64.99 -162.75,64.99 -221.31,0 -234.13,-185.04 -234.13,-324.15zm192.81 -330.53c-212.13,0 -344.92,241.09 -327.61,409.25 42.97,417.26 439.21,459.08 620.81,269.57 102.44,-106.91 106.19,-190.21 106.19,-320.75 0,-179.62 -142.42,-358.08 -316.76,-358.08l-82.64 0z"/>
   <path class="fil1" d="M4061.72 571.78c0,-26.59 4.33,-24.52 13.77,-41.32l-385.63 0 0 -275.45c-88.62,0 -123.95,-12.24 -123.95,41.32l0 688.62c0,193.48 81.9,316.76 275.45,316.76 212.85,0 261.68,-147.41 261.68,-316.76l-123.95 0c0,267.65 -289.22,247.55 -289.22,-13.77 0,-190.26 -28.63,-316.76 41.32,-316.76l330.53 0 0 -82.64z"/>
   <path class="fil1" d="M2753.35 819.68c0,230.72 44.78,482.03 330.53,482.03 414.91,0 344.31,-427.71 344.31,-771.25l-123.95 0c0,290.41 58.21,616.32 -187.55,637.56 -49.51,4.27 -114.23,-0.2 -159.72,-42.38 -103.6,-96.05 -65.9,-386.4 -65.9,-595.18l-137.72 0 0 289.22z"/>
  </g>
  <rect class="fil2" y="-0" width="7727.51" height="1589.04"/>
 </g>
</svg>
