<svg xmlns="http://www.w3.org/2000/svg" id="a" viewBox="0 0 125 20"><defs><style>.b{fill:#2a6bc7;}.b,.c{stroke-width:0px;}.c{fill:#f80;}</style></defs><path class="b" d="M121.34,13.25c-.41,1.85-1.29,3.9-4.35,3.9-2.49,0-4.3-1.91-4.3-4.53s1.81-4.53,4.3-4.53c1.46,0,2.15.43,2.99,1.26l.19.19s-5.93,3.3-6.25,3.48c.13.25.62,1.2.76,1.47.34-.19,7.77-4.32,8.1-4.5-1.24-2.44-3.18-3.69-5.78-3.69-3.53,0-6.3,2.78-6.3,6.32s2.77,6.32,6.3,6.32c3.34,0,5.95-2.28,6.29-5.45-.32-.04-1.66-.21-1.94-.24h0Z"></path><path class="c" d="M2.5,9.1c0-4.28,2.23-6.98,6.3-6.98s6.37,2.7,6.37,6.97v9.52h-2.27v-5.12H4.7v5.12h-2.2v-9.52ZM12.9,11.17v-2.08c0-2.92-1.38-4.65-4.1-4.65s-4.1,1.73-4.1,4.65v2.08h8.2Z"></path><path class="c" d="M17.42,12.41V1.06h2.12v7.49c.8-1.58,2.31-2.47,4.1-2.47,2.87,0,5.59,2.3,5.59,6.36,0,3.83-2.45,6.5-5.95,6.5s-5.86-2.55-5.86-6.53h0ZM27.09,12.5c0-2.47-1.52-4.25-3.79-4.25s-3.77,1.78-3.77,4.25,1.52,4.25,3.77,4.25,3.79-1.78,3.79-4.25Z"></path><path class="c" d="M30.52,12.51c0-3.71,2.45-6.43,5.93-6.43s5.93,2.72,5.93,6.43-2.45,6.43-5.93,6.43-5.93-2.72-5.93-6.43ZM40.23,12.51c0-2.47-1.52-4.25-3.79-4.25s-3.79,1.78-3.79,4.25,1.52,4.25,3.79,4.25,3.79-1.78,3.79-4.25Z"></path><path class="c" d="M44.1,12.78v-6.38h2.12v6.38c0,2.65,1.31,3.98,3.32,3.98s3.32-1.33,3.32-3.98v-6.38h2.12v6.38c0,4.05-2.18,6.16-5.44,6.16s-5.44-2.08-5.44-6.16Z"></path><path class="c" d="M57.15,13.99V2.07h2.12v4.33h6.06v2.15h-6.06v5.44c0,1.93.91,2.77,2.29,2.77s2.31-.81,2.31-2.77v-.27h2.1v.27c0,3.31-1.78,4.95-4.41,4.95s-4.41-1.63-4.41-4.95Z"></path><path class="b" d="M67.4,10.53c0-4.85,3.21-8.41,7.75-8.41,3.72,0,6.57,2.42,7.46,5.98h-2.4c-.78-2.2-2.63-3.66-5.05-3.66-3.23,0-5.46,2.57-5.46,6.08s2.23,6.08,5.46,6.08c2.43,0,4.28-1.46,5.05-3.66h2.4c-.89,3.56-3.74,5.98-7.46,5.98-4.54,0-7.75-3.56-7.75-8.41Z"></path><path class="b" d="M84.01,12.51c0-3.71,2.45-6.43,5.93-6.43s5.93,2.72,5.93,6.43-2.45,6.43-5.93,6.43-5.93-2.72-5.93-6.43ZM93.72,12.51c0-2.47-1.52-4.25-3.79-4.25s-3.79,1.78-3.79,4.25,1.52,4.25,3.79,4.25,3.79-1.78,3.79-4.25Z"></path><path class="b" d="M97.15,12.43c0-4.05,2.72-6.36,5.59-6.36,1.78,0,3.3.89,4.1,2.47V1.06h2.12v11.35c0,3.98-2.45,6.53-5.86,6.53s-5.95-2.67-5.95-6.5h0ZM106.84,12.5c0-2.47-1.52-4.25-3.77-4.25s-3.79,1.78-3.79,4.25,1.52,4.25,3.79,4.25,3.77-1.78,3.77-4.25Z"></path></svg>